<svg xmlns="http://www.w3.org/2000/svg" width="800" height="200" viewBox="0 0 800 200">
  <defs>
    <linearGradient id="bg" x1="0%" y1="0%" x2="100%" y2="100%">
      <stop offset="0%" style="stop-color:#1a1a2e;stop-opacity:1" />
      <stop offset="50%" style="stop-color:#16213e;stop-opacity:1" />
      <stop offset="100%" style="stop-color:#0f3460;stop-opacity:1" />
    </linearGradient>
    <linearGradient id="accent" x1="0%" y1="0%" x2="100%" y2="0%">
      <stop offset="0%" style="stop-color:#e94560;stop-opacity:1" />
      <stop offset="100%" style="stop-color:#f97316;stop-opacity:1" />
    </linearGradient>
  </defs>
  <rect width="800" height="200" rx="12" fill="url(#bg)"/>
  <rect x="0" y="188" width="800" height="12" rx="0" fill="url(#accent)" opacity="0.8"/>
  <text x="400" y="95" font-size="48" font-weight="bold" fill="#ffffff" font-family="system-ui, -apple-system, sans-serif" text-anchor="middle">AgentForge</text>
  <text x="400" y="135" font-size="16" fill="#94a3b8" font-family="system-ui, -apple-system, sans-serif" text-anchor="middle">Production-Grade Enterprise AI Agent Framework</text>
  <circle cx="80" cy="40" r="4" fill="#e94560" opacity="0.6"/>
  <circle cx="120" cy="60" r="3" fill="#f97316" opacity="0.5"/>
  <circle cx="100" cy="80" r="5" fill="#e94560" opacity="0.4"/>
  <circle cx="140" cy="35" r="3" fill="#f97316" opacity="0.6"/>
  <line x1="80" y1="40" x2="120" y2="60" stroke="#e94560" stroke-width="1" opacity="0.3"/>
  <line x1="120" y1="60" x2="100" y2="80" stroke="#f97316" stroke-width="1" opacity="0.3"/>
  <line x1="100" y1="80" x2="140" y2="35" stroke="#e94560" stroke-width="1" opacity="0.3"/>
  <line x1="140" y1="35" x2="80" y2="40" stroke="#f97316" stroke-width="1" opacity="0.3"/>
  <circle cx="680" cy="50" r="4" fill="#e94560" opacity="0.6"/>
  <circle cx="720" cy="70" r="3" fill="#f97316" opacity="0.5"/>
  <circle cx="700" cy="90" r="5" fill="#e94560" opacity="0.4"/>
  <circle cx="740" cy="45" r="3" fill="#f97316" opacity="0.6"/>
  <line x1="680" y1="50" x2="720" y2="70" stroke="#e94560" stroke-width="1" opacity="0.3"/>
  <line x1="720" y1="70" x2="700" y2="90" stroke="#f97316" stroke-width="1" opacity="0.3"/>
  <line x1="700" y1="90" x2="740" y2="45" stroke="#e94560" stroke-width="1" opacity="0.3"/>
  <line x1="740" y1="45" x2="680" y2="50" stroke="#f97316" stroke-width="1" opacity="0.3"/>
</svg>
